grf
version=1
nRows=7
nColumns=37
inDegrees=no
endheader
time	ground_force_1_vx	ground_force_1_vy	ground_force_1_vz	ground_force_1_px	ground_force_1_py	ground_force_1_pz	ground_moment_1_mx	ground_moment_1_my	ground_moment_1_mz	ground_force_2_vx	ground_force_2_vy	ground_force_2_vz	ground_force_2_px	ground_force_2_py	ground_force_2_pz	ground_moment_2_mx	ground_moment_2_my	ground_moment_2_mz	ground_force_3_vx	ground_force_3_vy	ground_force_3_vz	ground_force_3_px	ground_force_3_py	ground_force_3_pz	ground_moment_3_mx	ground_moment_3_my	ground_moment_3_mz	ground_force_4_vx	ground_force_4_vy	ground_force_4_vz	ground_force_4_px	ground_force_4_py	ground_force_4_pz	ground_moment_4_mx	ground_moment_4_my	ground_moment_4_mz
      5.50000000	      0.00000000	     -0.00000000	      0.00000000	      0.00000000	      0.00000000	      0.00000000	      0.00000000	      0.00000000	      0.00000000	      6.35388327	     32.15964508	   -361.69573975	   -245.28267474	  -1105.80701577	      0.00000000	      0.00000000	      0.00000000	   9138.89604251	      1.45541869	    -37.04267896	   -398.07110596	   -279.61472359	   -703.26291619	      0.00000000	     -0.00000000	     -0.00000000	 -13465.20879989	      0.00000000	     -0.00000000	      0.00000000	      0.00000000	      0.00000000	      0.00000000	      0.00000000	      0.00000000	      0.00000000
      5.51000000	      0.00000000	     -0.00000000	      0.00000000	      0.00000000	      0.00000000	      0.00000000	      0.00000000	      0.00000000	      0.00000000	      5.91423559	     32.64804840	   -364.23281860	   -244.95039430	  -1106.81627459	      0.00000000	      0.00000000	      0.00000000	   9230.58441189	      1.12697779	    -36.89232264	   -396.04129028	   -279.13886678	   -703.82073884	      0.00000000	      0.00000000	     -0.00000000	 -13520.97178843	      0.00000000	     -0.00000000	      0.00000000	      0.00000000	      0.00000000	      0.00000000	      0.00000000	      0.00000000	      0.00000000
      5.52000000	      0.00000000	     -0.00000000	      0.00000000	      0.00000000	      0.00000000	      0.00000000	      0.00000000	      0.00000000	      0.00000000	      5.54145384	     32.77374268	   -365.58242798	   -245.02052681	  -1107.01225336	      0.00000000	      0.00000000	      0.00000000	   9343.69400185	      1.41936938	    -36.35235990	   -394.99356079	   -279.82947598	   -702.94320747	      0.00000000	      0.00000000	     -0.00000000	 -13638.81861715	      0.00000000	     -0.00000000	      0.00000000	      0.00000000	      0.00000000	      0.00000000	      0.00000000	      0.00000000	      0.00000000
      5.53000000	      0.00000000	     -0.00000000	      0.00000000	      0.00000000	      0.00000000	      0.00000000	      0.00000000	      0.00000000	      0.00000000	      5.08003950	     32.90468216	   -363.98275757	   -245.09454567	  -1107.47751842	      0.00000000	      0.00000000	      0.00000000	   9435.87136487	      0.34447457	    -36.31589511	   -394.27380371	   -279.29338275	   -702.54192350	      0.00000000	      0.00000000	     -0.00000000	 -13586.20047681	      0.00000000	     -0.00000000	      0.00000000	      0.00000000	      0.00000000	      0.00000000	      0.00000000	      0.00000000	      0.00000000
      5.54000000	      0.00000000	     -0.00000000	      0.00000000	      0.00000000	      0.00000000	      0.00000000	      0.00000000	      0.00000000	      0.00000000	      4.19927263	     33.45000458	   -364.52459717	   -244.70942813	  -1107.72830774	      0.00000000	      0.00000000	      0.00000000	   9449.88919939	      0.16195490	    -36.27428438	   -393.24722290	   -279.13548844	   -702.84821939	      0.00000000	      0.00000000	     -0.00000000	 -13696.04814099	      0.00000000	     -0.00000000	      0.00000000	      0.00000000	      0.00000000	      0.00000000	      0.00000000	      0.00000000	      0.00000000
      5.55000000	      0.00000000	     -0.00000000	      0.00000000	      0.00000000	      0.00000000	      0.00000000	      0.00000000	      0.00000000	      0.00000000	      3.64263177	     33.84352493	   -364.37857056	   -244.13848693	  -1107.98248428	      0.00000000	      0.00000000	      0.00000000	   9410.54976603	     -0.76163167	    -36.10846322	   -392.28448486	   -278.66582578	   -702.91897095	      0.00000000	      0.00000000	     -0.00000000	 -13493.12622020	      0.00000000	     -0.00000000	      0.00000000	      0.00000000	      0.00000000	      0.00000000	      0.00000000	      0.00000000	      0.00000000
      5.56000000	      0.00000000	     -0.00000000	      0.00000000	      0.00000000	      0.00000000	      0.00000000	      0.00000000	      0.00000000	      0.00000000	      3.07040644	     34.20011902	   -361.52243042	   -243.81642372	  -1106.93191871	      0.00000000	      0.00000000	      0.00000000	   9653.57313402	     -1.62269705	    -36.11260591	   -391.64617920	   -278.28936858	   -703.74547572	      0.00000000	      0.00000000	     -0.00000000	 -13529.20779250	      0.00000000	     -0.00000000	      0.00000000	      0.00000000	      0.00000000	      0.00000000	      0.00000000	      0.00000000	      0.00000000
